PathFileType	4	(X/Y/Z)	/Users/itak/Documents/Research/Walk-IL/dataset/trc/00066_00006.trc
DataRate	CameraRate	NumFrames	NumMarkers	Units	OrigDataRate	OrigDataStartFrame	OrigNumFrames
100.000000	100.000000	4	53	mm	100.000000	369	739
Frame#	Time	RPSI			LPSI			L3			STRN			T10			C7			CLAV			RBAK			LBAK			LSHO			LUPA			LAEL			LAOL			LWTS			LWPS			LFRA			LIFD			LHPS			LHTS			RSHO			RUPA			RAEL			RAOL			RWTS			RWPS			RFRA			RIFD			RHTS			RHPS			RBHD			LFHD			RFHD			LBHD			LHIP			RHIP			RASI			LASI			LKNE			LTHI			LANK			LTIP			LTOE			LMT1			LMT5			LHEE			RKNE			RTHI			RANK			RTIP			RTOE			RMT1			RMT5			RHEE			
		X1	Y1	Z1	X2	Y2	Z2	X3	Y3	Z3	X4	Y4	Z4	X5	Y5	Z5	X6	Y6	Z6	X7	Y7	Z7	X8	Y8	Z8	X9	Y9	Z9	X10	Y10	Z10	X11	Y11	Z11	X12	Y12	Z12	X13	Y13	Z13	X14	Y14	Z14	X15	Y15	Z15	X16	Y16	Z16	X17	Y17	Z17	X18	Y18	Z18	X19	Y19	Z19	X20	Y20	Z20	X21	Y21	Z21	X22	Y22	Z22	X23	Y23	Z23	X24	Y24	Z24	X25	Y25	Z25	X26	Y26	Z26	X27	Y27	Z27	X28	Y28	Z28	X29	Y29	Z29	X30	Y30	Z30	X31	Y31	Z31	X32	Y32	Z32	X33	Y33	Z33	X34	Y34	Z34	X35	Y35	Z35	X36	Y36	Z36	X37	Y37	Z37	X38	Y38	Z38	X39	Y39	Z39	X40	Y40	Z40	X41	Y41	Z41	X42	Y42	Z42	X43	Y43	Z43	X44	Y44	Z44	X45	Y45	Z45	X46	Y46	Z46	X47	Y47	Z47	X48	Y48	Z48	X49	Y49	Z49	X50	Y50	Z50	X51	Y51	Z51	X52	Y52	Z52	X53	Y53	Z53	

370	3.69	532.6444702148438	1023.078247070312	-498.5436706542969	473.8804931640625	1004.476867675781	-335.0187072753906	502.8686828613281	1072.824462890625	-418.7575988769531	263.0044250488281	1261.263793945312	-532.8005981445312	510.9754028320312	1207.18115234375	-421.8591003417969	449.6563110351562	1470.412231445312	-458.7598876953125	287.3058471679688	1376.819213867188	-523.2283325195312	538.3978881835938	1332.492431640625	-496.7395324707031	434.0691833496094	1439.052124023438	-356.4830932617188	311.9889831542969	1440.596923828125	-327.2553100585938	312.2902526855469	1325.325927734375	-235.6250152587891	307.5084533691406	1116.130249023438	-189.5639343261719	392.2976379394531	1099.73681640625	-251.50146484375	258.291259765625	861.8090209960938	-242.6530609130859	295.9692687988281	864.6129150390625	-168.0906829833984	293.9569396972656	1006.6484375	-172.69482421875	270.2294311523438	675.3485107421875	-242.3343963623047	273.4771423339844	779.2866821289062	-172.0360412597656	244.2188720703125	777.4049682617188	-236.1494750976562	459.9218139648438	1429.242309570312	-641.670654296875	498.0536499023438	1364.41162109375	-694.9281616210938	556.2183227539062	1108.722534179688	-733.0267333984375	503.0226135253906	1074.889892578125	-654.7953491210938	415.4610595703125	854.5555419921875	-778.3399658203125	502.1748046875	845.9541625976562	-794.9987182617188	550.8590698242188	1028.7734375	-753.21826171875	426.2268676757812	662.95654296875	-765.9100341796875	405.055908203125	747.5759887695312	-792.1774291992188	479.3390808105469	754.5911254882812	-814.3316040039062	417.9841918945312	1649.780029296875	-454.8800964355469	228.9600067138672	1669.040283203125	-558.5095825195312	242.2383117675781	1668.963256835938	-432.5931091308594	396.1895446777344	1641.280517578125	-590.7291259765625	338.9846496582031	945.2175903320312	-295.0464172363281	510.1411437988281	952.8455810546875	-594.3443603515625	390.8603820800781	960.2498168945312	-633.2015380859375	269.2108459472656	953.490234375	-396.6448669433594	130.3470001220703	534.4644165039062	-447.0842590332031	196.1667327880859	651.7711791992188	-370.343017578125	194.1092224121094	63.27789306640625	-459.8500366210938	162.0303192138672	279.0733337402344	-442.6195373535156	6.194461345672607	81.74803924560547	-531.60791015625	65.70954132080078	68.56868743896484	-564.8529052734375	85.92896270751953	66.59558868408203	-456.2614135742188	265.0201110839844	58.92195510864258	-517.295166015625	483.5896606445312	510.0702209472656	-609.7001953125	453.3087158203125	779.1005859375	-637.26318359375	605.3564453125	34.21262359619141	-562.352783203125	518.386962890625	390.8217468261719	-602.6742553710938	398.0279541015625	36.8011474609375	-631.7675170898438	432.5006408691406	45.1605110168457	-568.3652954101562	504.3797607421875	36.60153198242188	-635.8201293945312	619.8221435546875	40.62014389038086	-490.4845581054688	
371	3.7	524.539794921875	1021.456604003906	-502.8449401855469	467.4848022460938	1002.856079101562	-338.7215576171875	495.6402282714844	1071.341674804688	-422.6572265625	254.4658813476562	1259.8193359375	-533.752197265625	503.8833312988281	1205.702880859375	-425.5614013671875	441.9056701660156	1468.98193359375	-461.4651489257812	278.9357299804688	1375.357177734375	-524.2125244140625	530.2662963867188	1331.172241210938	-500.641845703125	427.4541931152344	1437.445556640625	-359.0310974121094	305.6980895996094	1438.861206054688	-328.4583740234375	307.1695861816406	1323.518920898438	-236.9531555175781	303.2279357910156	1114.29345703125	-191.0864715576172	387.1282958984375	1097.985961914062	-254.2639923095703	253.7224426269531	859.7754516601562	-242.9634094238281	292.3262634277344	862.8704223632812	-168.9642181396484	290.1218566894531	1004.850158691406	-173.8514709472656	266.1178588867188	673.291015625	-242.2823638916016	270.0585021972656	777.474609375	-172.3804168701172	239.8858489990234	775.3257446289062	-236.0690460205078	450.0662841796875	1428.067138671875	-644.5396118164062	487.6132202148438	1363.302124023438	-698.4264526367188	544.7915649414062	1107.4833984375	-737.7520141601562	492.5996398925781	1073.709716796875	-658.8396606445312	401.59521484375	854.1799926757812	-781.0699462890625	488.0466613769531	844.9658203125	-799.0858154296875	538.7742309570312	1027.41650390625	-758.003173828125	411.411865234375	662.5159301757812	-768.6962280273438	390.2300109863281	747.2975463867188	-794.700927734375	464.2057800292969	753.7471923828125	-817.998779296875	409.7581787109375	1648.5146484375	-457.2581176757812	219.6508331298828	1667.188232421875	-558.8136596679688	234.1723175048828	1667.273193359375	-433.1151428222656	386.4508972167969	1639.738037109375	-592.76171875	333.1270446777344	943.3356323242188	-297.6455993652344	501.2511596679688	951.8271484375	-598.6754150390625	381.6808471679688	958.843505859375	-635.9321899414062	261.9448852539062	951.8646240234375	-398.2485656738281	127.5720901489258	531.329345703125	-447.3812866210938	192.9797515869141	647.88525390625	-370.3564147949219	166.3903198242188	60.02017211914062	-466.6987609863281	146.4172821044922	276.7240905761719	-446.4643859863281	-21.1104850769043	89.00873565673828	-536.2422485351562	37.21125030517578	73.19595336914062	-570.3665771484375	58.56811141967773	68.700927734375	-462.02197265625	236.2691345214844	52.55678939819336	-525.0534057617188	478.59130859375	509.203125	-611.1740112304688	445.1631469726562	777.7108764648438	-640.187255859375	605.0927734375	34.7052001953125	-562.1632690429688	514.8404541015625	390.3798828125	-603.759033203125	397.5921020507812	36.43732452392578	-631.6209716796875	432.192626953125	44.864990234375	-568.2777709960938	504.1224670410156	36.7186279296875	-635.725830078125	619.5731201171875	41.33492660522461	-490.3775024414062	
372	3.71	516.2837524414062	1019.73193359375	-507.0496826171875	460.8930358886719	1001.07666015625	-342.3475646972656	488.1995239257812	1069.734619140625	-426.4386291503906	245.7827453613281	1258.303344726562	-534.5537109375	496.6169128417969	1204.117919921875	-429.0966186523438	434.0390014648438	1467.459838867188	-463.9843444824219	270.4370422363281	1373.824096679688	-525.0353393554688	521.980224609375	1329.734741210938	-504.3457641601562	420.712158203125	1435.725708007812	-361.4097900390625	299.2873840332031	1437.02880859375	-329.5007934570312	301.8963012695312	1321.589599609375	-238.15185546875	298.7476196289062	1112.31689453125	-192.51806640625	381.6946105957031	1096.098510742188	-256.9312133789062	248.9019622802734	857.6531982421875	-243.3656311035156	288.4427490234375	860.9738159179688	-169.9138031005859	286.03564453125	1002.898559570312	-175.0005035400391	261.7032775878906	671.1505126953125	-242.4625244140625	266.3932800292969	775.5145874023438	-172.8685607910156	235.3313446044922	773.1358642578125	-236.1419677734375	440.0997924804688	1426.800903320312	-647.203857421875	477.0831298828125	1362.128784179688	-701.7203369140625	533.3193969726562	1106.182373046875	-742.2627563476562	482.1683959960938	1072.471801757812	-662.6882934570312	387.8117370605469	853.733642578125	-783.5098876953125	473.9604187011719	843.923095703125	-802.8502807617188	526.663818359375	1025.99755859375	-762.5513916015625	396.6416320800781	662.0271606445312	-771.0709838867188	375.4657592773438	746.9603271484375	-796.8731079101562	449.1332092285156	752.8312377929688	-821.30078125	401.4365844726562	1647.159057617188	-459.4555969238281	210.2923583984375	1665.2607421875	-558.9698486328125	226.0449829101562	1665.533081054688	-433.4915771484375	376.6841125488281	1638.112670898438	-594.619384765625	327.0902709960938	941.3014526367188	-300.1600341796875	492.1173095703125	950.6596069335938	-602.8912353515625	372.2822265625	957.3616943359375	-638.5428466796875	254.5010375976562	950.1416625976562	-399.7403259277344	124.8267135620117	528.11181640625	-447.76171875	189.9560089111328	643.724609375	-370.3976745605469	139.7198181152344	57.97310256958008	-472.6979064941406	131.4433441162109	274.9797058105469	-449.8480224609375	-46.93867492675781	96.94660949707031	-539.80419921875	10.03137874603271	78.65957641601562	-574.8555297851562	32.52072525024414	71.68669891357422	-466.8131408691406	208.4669036865234	47.51407623291016	-531.99267578125	473.3684387207031	508.3108215332031	-612.6788330078125	436.8441467285156	776.261474609375	-643.0218505859375	604.8500366210938	35.25329208374023	-562.0125732421875	511.0926513671875	389.9033203125	-604.9059448242188	397.1809997558594	36.10888290405273	-631.4921264648438	431.8680419921875	44.58713912963867	-568.2064819335938	503.8956604003906	36.81103515625	-635.6365966796875	619.3248291015625	42.08414840698242	-490.2911071777344	
373	3.72	507.8938293457031	1017.942321777344	-511.1384582519531	454.1047058105469	999.1701049804688	-345.8776550292969	480.5528869628906	1068.016357421875	-430.0838317871094	236.9629516601562	1256.7236328125	-535.1998901367188	489.1614379882812	1202.43701171875	-432.4703674316406	426.0492858886719	1465.857788085938	-466.317138671875	261.8020629882812	1372.226684570312	-525.6959228515625	513.5477905273438	1328.197387695312	-507.8521118164062	413.839599609375	1433.90185546875	-363.6221618652344	292.7550048828125	1435.106079101562	-330.3825988769531	296.4761657714844	1319.5419921875	-239.2188720703125	294.0701904296875	1110.209228515625	-193.8400115966797	376.0234680175781	1094.08203125	-259.4699096679688	243.8152465820312	855.4497680664062	-243.8579864501953	284.3163757324219	858.9274291992188	-170.9301452636719	281.6867980957031	1000.799621582031	-176.1345672607422	256.9894104003906	668.9365234375	-242.8761444091797	262.4664306640625	773.40869140625	-173.4971466064453	230.5576477050781	770.841552734375	-236.3675842285156	430.02294921875	1425.449096679688	-649.6617431640625	466.451171875	1360.884643554688	-704.7969360351562	521.8020629882812	1104.8232421875	-746.5523071289062	471.7198181152344	1071.175048828125	-666.3363647460938	374.1429748535156	853.2223510742188	-785.6793823242188	459.9309997558594	842.8310546875	-806.296875	514.5362548828125	1024.530029296875	-766.8617553710938	381.8060913085938	661.50732421875	-773.0950927734375	360.7825317382812	746.5650634765625	-798.729736328125	434.1432495117188	751.8502807617188	-824.2550659179688	393.0235595703125	1645.724365234375	-461.4722900390625	200.8795928955078	1663.283813476562	-558.9816284179688	217.8619232177734	1663.755737304688	-433.7189331054688	366.8840942382812	1636.423461914062	-596.3042602539062	320.8540344238281	939.1458129882812	-302.5774230957031	482.7445983886719	949.3438720703125	-606.9375	362.7022705078125	955.810791015625	-641.0313110351562	246.8982391357422	948.3313598632812	-401.1286926269531	121.9008026123047	524.9483032226562	-448.213623046875	186.9948425292969	639.431640625	-370.5093688964844	114.4542846679688	56.98340225219727	-477.9039611816406	117.2189788818359	273.7844848632812	-452.7502746582031	-71.05118560791016	105.1329650878906	-542.26513671875	-15.54824829101562	84.61225128173828	-578.301513671875	8.120882034301758	75.25506591796875	-470.6289672851562	182.0117340087891	43.75839614868164	-538.1795043945312	467.8897399902344	507.38916015625	-614.2332763671875	428.3600463867188	774.7646484375	-645.7545166015625	604.6132202148438	35.87303924560547	-561.8915405273438	507.1130981445312	389.3912963867188	-606.1148681640625	396.80322265625	35.82112121582031	-631.3872680664062	431.5230407714844	44.3287239074707	-568.1514892578125	503.6945495605469	36.87955856323242	-635.5529174804688	619.0647583007812	42.8822021484375	-490.2146606445312	
